<html>
<head>
<meta charset="UTF-8">
<meta name="viewport" content="width=device-width, initial-scale=1.0"/>

<style>
.comment
{
    padding-left: 20px;
    margin-top: 4px;
    margin-right: 4px;
    margin-bottom: 4px;
    border: 2px #000 solid;
}
.submission
{
    border: 4px #00f solid;
    padding-left: 20px;
}
.hidden
{
    display: none;
}
</style>
</head>
<body><div class="submission" id="t3_7u322v">
    <p class="userinfo">
        <a href="https://www.reddit.com/u/Lightzmare">Lightzmare</a>
        <span class="score"> | 15 points</span>
        <span class="timestamp"> | Jan 30 2018 18:21:18</span>
    </p>
    <strong>[MOVIE] Roman.J.Israel.Esq.2017.1080p.BluRay.x264 [8.74 GB]</strong>
    <p><p><strong>Synopsis</strong>: <em>Hard-nosed liberal lawyer Roman J. Israel has been fighting the good fight forever while others take the credit. When his partner – the firm’s frontman – has a heart attack, Israel suddenly takes on that role. He soon discovers some unsettling truths about the firm – truths that conflict with his values of helping the poor and dispossessed – and finds himself in an existential crisis that leads to extreme actions.</em></p>
<p><a href="http://www.imdb.com/title/tt6000478/">IMDB</a> | <a href="https://www.themoviedb.org/movie/413362-inner-city">TMDB</a></p>
<hr>
<p><code>L</code>: <code>links.snahp.it/575RJIEBR1080x264</code></p>
<p><code>K</code>: <code>IXMyWHZnQVdHTmU1dVFmUGlxOFdmYlEK</code></p>
<p><strong>Note: The decryption <code>K</code>ey above is encoded in base64. Please decode it first before using it on the MEGA link.</strong></p>
<hr>
<p><code>Mediainfo</code>: </p>
<pre><code>General
Unique ID                                : 216981632666577425005132153280071482606 (0xA33D247296478DDDB9FF7EE190243CEE)
Complete name                            : Roman.J.Israel.Esq.2017.1080p.BluRay.x264-DRONES.mkv
Format                                   : Matroska
Format version                           : Version 4 / Version 2
File size                                : 8.74 GiB
Duration                                 : 2h 2mn
Overall bit rate                         : 10.2 Mbps
Encoded date                             : UTC 2018-01-27 07:16:56
Writing application                      : mkvmerge v8.3.0 ('Over the Horizon') 64bit
Writing library                          : libebml v1.3.1 + libmatroska v1.4.2
DURATION                                 : 02:02:20.342000000
NUMBER_OF_FRAMES                         : 688157
NUMBER_OF_BYTES                          : 1384571884
_STATISTICS_WRITING_APP                  : mkvmerge v8.3.0 ('Over the Horizon') 64bit
_STATISTICS_WRITING_DATE_UTC             : 2018-01-27 07:16:56
_STATISTICS_TAGS                         : BPS DURATION NUMBER_OF_FRAMES NUMBER_OF_BYTES

Video
ID                                       : 1
Format                                   : AVC
Format/Info                              : Advanced Video Codec
Format profile                           : High@L4.1
Format settings, CABAC                   : Yes
Format settings, ReFrames                : 4 frames
Codec ID                                 : V_MPEG4/ISO/AVC
Duration                                 : 2h 2mn
Bit rate                                 : 8 724 Kbps
Width                                    : 1 920 pixels
Height                                   : 1 040 pixels
Display aspect ratio                     : 1.85:1
Frame rate mode                          : Constant
Frame rate                               : 23.976 fps
Color space                              : YUV
Chroma subsampling                       : 4:2:0
Bit depth                                : 8 bits
Scan type                                : Progressive
Bits/(Pixel*Frame)                       : 0.182
Stream size                              : 7.28 GiB (83%)
Writing library                          : x264 core 155 r2901 7d0ff22
Encoding settings                        : cabac=1 / ref=4 / deblock=1:0:0 / analyse=0x3:0x133 / me=umh / subme=7 / psy=1 / psy_rd=1.00:0.00 / mixed_ref=1 / me_range=16 / chroma_me=1 / trellis=1 / 8x8dct=1 / cqm=0 / deadzone=21,11 / fast_pskip=0 / chroma_qp_offset=-2 / threads=30 / lookahead_threads=5 / sliced_threads=0 / nr=0 / decimate=1 / interlaced=0 / bluray_compat=0 / constrained_intra=0 / bframes=3 / b_pyramid=2 / b_adapt=1 / b_bias=0 / direct=1 / weightb=1 / open_gop=0 / weightp=2 / keyint=250 / keyint_min=23 / scenecut=40 / intra_refresh=0 / rc_lookahead=40 / rc=2pass / mbtree=1 / bitrate=8724 / ratetol=1.0 / qcomp=0.60 / qpmin=0 / qpmax=69 / qpstep=4 / cplxblur=20.0 / qblur=0.5 / ip_ratio=1.40 / aq=1:1.00
Language                                 : English
Default                                  : Yes
Forced                                   : No
DURATION                                 : 02:02:20.262000000
NUMBER_OF_FRAMES                         : 175990
NUMBER_OF_BYTES                          : 7997045111
_STATISTICS_WRITING_APP                  : mkvmerge v8.3.0 ('Over the Horizon') 64bit
_STATISTICS_WRITING_DATE_UTC             : 2018-01-27 07:16:56
_STATISTICS_TAGS                         : BPS DURATION NUMBER_OF_FRAMES NUMBER_OF_BYTES

Audio
ID                                       : 2
Format                                   : DTS
Format/Info                              : Digital Theater Systems
Mode                                     : 16
Format settings, Endianness              : Big
Codec ID                                 : A_DTS
Duration                                 : 2h 2mn
Bit rate mode                            : Constant
Bit rate                                 : 1 509 Kbps
Channel(s)                               : 6 channels
Channel positions                        : Front: L C R, Side: L R, LFE
Sampling rate                            : 48.0 KHz
Bit depth                                : 24 bits
Compression mode                         : Lossy
Stream size                              : 1.29 GiB (15%)
Language                                 : English
Default                                  : Yes
Forced                                   : No
</code></pre>
<hr>
<p>Screenshots: </p>
<ul>
<li>
<p>https://images2.imgbox.com/7b/b4/HhzuAe5v_o.png</p>
</li>
<li>
<p>https://images2.imgbox.com/ab/04/u7Ry76xR_o.png</p>
</li>
<li>
<p>https://images2.imgbox.com/f2/bd/9avoy944_o.png</p>
</li>
<li>
<p>https://images2.imgbox.com/dd/fd/BXgnZW88_o.png</p>
</li>
</ul>
<hr>
<p>Misc: <code>3+77</code></p></p>
    <p class="toolbar">
        <a href="https://www.reddit.com/r/megalinks/comments/7u322v">permalink</a>
    </p>
</div>

</body>

<script>
function toggle_collapse(comment_div)
{
    var button = comment_div.getElementsByClassName("toggle_hide_button")[0];
    var collapsible = comment_div.getElementsByClassName("collapsible")[0];
    if (collapsible.classList.contains("hidden"))
    {
        collapsible.classList.remove("hidden");
        button.innerText = "[-]";
    }
    else
    {
        collapsible.classList.add("hidden");
        button.innerText = "[+]";
    }
}
</script>
</html>
